<?xml version="1.0" encoding="utf-8"?>
<!-- Generator: Adobe Illustrator 27.0.0, SVG Export Plug-In . SVG Version: 6.00 Build 0)  -->
<svg version="1.1" id="Laag_1" xmlns="http://www.w3.org/2000/svg" xmlns:xlink="http://www.w3.org/1999/xlink" x="0px" y="0px"
	 viewBox="0 0 400 400" style="enable-background:new 0 0 400 400;" xml:space="preserve">
<g>
	<path d="M200.03,49.47c77.98-1.1,150.8,62.08,150.65,150.61c-0.15,87.62-71.83,150.62-150.63,150.27
		c-83.2-0.37-150.95-67.28-150.75-150.22C49.53,112.51,121.3,48.45,200.03,49.47z M194.63,339.87c0-93.62,0-186.85,0-280.08
		c-66.04,0.35-135.16,57.23-135.19,140.02C59.4,282.46,128.45,339.55,194.63,339.87z M205.46,194.16
		c30.1-0.58,63.79-29.05,62.34-69.72c-1.39-39.34-36.09-64.9-62.34-64.3C205.46,104.69,205.46,149.24,205.46,194.16z M340.13,205.05
		c-42.47,0-84.54,0-126.22,0c29.76,29.91,59.56,59.85,89.36,89.8C327.08,271.39,341.05,231.98,340.13,205.05z M205.52,212.22
		c0,43.46,0,85.52,0,128.08c34.76-1.68,64.49-14.17,90.8-37.95C266.03,272.28,236.25,242.72,205.52,212.22z M239.4,194.6
		c34.26,0,67.49,0,100.69,0c1.88-19.71-8.9-52.37-24.59-74.99c-15.02-21.65-46.86-46.92-61.15-48.53
		C290.21,106.69,284.92,165.55,239.4,194.6z"/>
	<path d="M193.98,38.24c1.99-1.46,3.88-3.9,6.01-4.14c3.23-0.36,6.02,2.09,5.11,5.52c-0.55,2.07-3.24,4.72-5.19,4.92
		c-1.83,0.19-3.95-2.51-5.94-3.94C193.97,39.81,193.97,39.02,193.98,38.24z"/>
	<path d="M194.01,359.13c2.04-1.26,3.97-3.27,6.15-3.61c3.17-0.49,5.17,1.66,5.13,5.05c-0.04,3.56-2.13,5.89-5.5,5.27
		c-2.14-0.39-3.92-2.74-5.86-4.21C193.96,360.8,193.98,359.96,194.01,359.13z"/>
</g>
</svg>
